<svg id="Layer_1" enable-background="new 0 0 512.001 512.001" height="512" viewBox="0 0 512.001 512.001" width="512" xmlns="http://www.w3.org/2000/svg"><g><path d="m512.001 170.976v-26.63c0-7.995-6.505-14.5-14.5-14.5h-55.498l-16.405-58.207c-4.54-16.087-19.385-27.323-36.098-27.323h-170.536c-4.143 0-7.5 3.358-7.5 7.5s3.357 7.5 7.5 7.5h170.536c10.029 0 18.937 6.743 21.661 16.395l24.688 87.6h-359.698l24.688-87.597c2.726-9.655 11.633-16.397 21.662-16.397h61.464c4.143 0 7.5-3.358 7.5-7.5s-3.357-7.5-7.5-7.5h-61.464c-16.713 0-31.558 11.236-36.099 27.326l-16.404 58.205h-55.497c-7.995 0-14.5 6.505-14.5 14.5v26.63c-.08 9.187 8.561 15.763 17.532 14.5-10.888 11.988-17.532 27.898-17.532 45.332v116.51c0 18.11 12.904 33.261 30 36.745v56.12c0 15.164 12.337 27.5 27.5 27.5h29c15.163 0 27.5-12.336 27.5-27.5v-55.365h284v55.365c0 15.164 12.337 27.5 27.5 27.5h29c15.163 0 27.5-12.336 27.5-27.5v-56.12c17.096-3.484 30-18.635 30-36.745v-52.884c0-4.142-3.357-7.5-7.5-7.5s-7.5 3.358-7.5 7.5v52.884c0 12.542-10.188 22.408-22.597 22.5-35.237.262-100.008-.132-134.712 0l-10.411-23.776c-2.787-6.368-9.079-10.482-16.03-10.482h-114.5c-6.951 0-13.243 4.114-16.03 10.481l-10.411 23.777c-.068.01-134.652.001-134.712 0-12.427-.164-22.596-9.883-22.597-22.5v-116.51c0-28.949 23.552-52.5 52.5-52.5h377c28.948 0 52.5 23.551 52.5 52.5v28.626c0 4.142 3.357 7.5 7.5 7.5s7.5-3.358 7.5-7.5v-28.626c0-17.434-6.644-33.344-17.532-45.334 8.772.919 17.616-4.996 17.532-14.5zm-99 213.844h54v55.365c0 6.893-5.607 12.5-12.5 12.5h-29c-6.893 0-12.5-5.607-12.5-12.5zm-216.54-32.761c.398-.909 1.297-1.497 2.29-1.497h114.5c.993 0 1.892.587 2.29 1.498l7.776 17.76h-134.633zm-151.46 32.761h54v55.365c0 6.893-5.607 12.5-12.5 12.5h-29c-6.893 0-12.5-5.607-12.5-12.5zm15.462-221.142c-8.257.859-16.068 3.225-23.174 6.798h-22.288v-25.63h50.77zm436.538 6.798h-22.289c-7.106-3.573-14.917-5.939-23.174-6.798l-5.307-18.832h50.77zm-15 51.387c0-7.995-6.505-14.5-14.5-14.5h-77.261c-4.603 0-8.975 2.216-11.695 5.929s-3.518 8.548-2.132 12.936l11.649 36.901c1.913 6.063 7.47 10.136 13.827 10.136h65.611c7.995 0 14.5-6.505 14.5-14.5v-36.902zm-15 36.402h-64.744l-11.334-35.901h76.078zm-64.871 37.503c-4.143 0-7.5 3.358-7.5 7.5s3.357 7.5 7.5 7.5h72.37c4.143 0 7.5-3.358 7.5-7.5s-3.357-7.5-7.5-7.5zm-185.805-29.202h88.038c4.143 0 7.5-3.358 7.5-7.5s-3.357-7.5-7.5-7.5h-88.038c-4.143 0-7.5 3.358-7.5 7.5s3.357 7.5 7.5 7.5zm-67.614 44.202h214.579c4.985 0 9.694-2.419 12.599-6.471 2.903-4.052 3.681-9.29 2.079-14.01l-24.57-72.404c-2.136-6.292-8.034-10.519-14.678-10.519h-165.438c-6.644 0-12.542 4.228-14.678 10.519l-24.57 72.404c-1.602 4.72-.824 9.958 2.079 14.01 2.904 4.052 7.613 6.471 12.598 6.471zm-.472-15.661 24.57-72.404c.068-.203.259-.339.473-.339h165.438c.214 0 .404.136.473.339l24.57 72.404c.027.079.083.243-.066.452-.149.208-.323.208-.406.208h-214.58c-.083 0-.257 0-.406-.208-.149-.209-.094-.373-.066-.452zm-24.3-31.977 11.648-36.901c1.387-4.389.59-9.225-2.131-12.937s-7.093-5.929-11.695-5.929h-77.26c-7.995 0-14.5 6.505-14.5 14.5v36.901c0 7.995 6.505 14.5 14.5 14.5h65.611c6.357.001 11.914-4.073 13.827-10.134zm-14.194-4.865h-64.744v-35.901h76.078zm-72.244 37.503c-4.143 0-7.5 3.358-7.5 7.5s3.357 7.5 7.5 7.5h72.37c4.143 0 7.5-3.358 7.5-7.5s-3.357-7.5-7.5-7.5z" fill="rgb(0,0,0)"/></g></svg>