<svg id="Capa_1" enable-background="new 0 0 512.023 512.023" height="512" viewBox="0 0 512.023 512.023" width="512" xmlns="http://www.w3.org/2000/svg"><g><path d="m314.845 227.492c-9.154-19.331-21.382-37.457-36.649-53.204-2.513-2.574-6.19-3.447-9.596-2.277-3.41 1.171-5.779 4.125-6.183 7.717-2.769 24.908-9.297 43.829-19.407 56.24-8.231 9.683-15.988 13.859-25.063 27.709-5.229 8-9.552 17.079-12.913 27.101-3.803-7.443-5.958-19.839-5.771-26.023-.042-3.491-2.157-6.597-5.389-7.913-3.234-1.316-6.919-.57-9.371 1.884-19.438 19.322-33.856 44.761-41.697 73.566-1.088 3.997 1.271 8.119 5.267 9.207 3.054.837 7.604-.644 9.207-5.267 5.819-21.38 15.559-40.675 28.466-56.545 1.867 10.447 7.153 22.685 14.385 30.795 2.266 2.631 5.771 3.759 9.146 2.943 3.381-.816 5.989-3.425 6.807-6.81 3.214-13.324 8.065-25.01 14.417-34.73 8.027-12.305 14.749-15.359 24.14-26.446 10.129-12.435 17.153-29.796 20.944-51.716 9.327 10.897 19.023 25.966 25.702 40.189 1.773 3.745 6.245 5.34 9.988 3.568 3.744-1.773 5.342-6.244 3.57-9.988z"/><path d="m232.399 452.428c2.679 1.075 7.556.695 9.86-3.907l42.676-98.69c1.645-3.802-.105-8.216-3.907-9.86-3.802-1.643-8.217.106-9.86 3.907l-42.676 98.69c-1.644 3.802.105 8.216 3.907 9.86z"/><path d="m236.986 383.156c4.701-5.345 7.334-12.419 7.416-19.92.541-13.591-10.434-29.359-25.826-29.143-14.156 0-25.77 12.765-25.941 28.585-.171 15.915 11.3 28.987 25.572 29.141 7.128.078 13.798-2.999 18.779-8.663zm-11.264-9.906c-2.051 2.332-4.654 3.639-7.354 3.57-6.001-.065-10.817-6.336-10.735-13.98.082-7.604 4.981-13.747 10.941-13.747 6.716.073 11.033 7.432 10.828 13.981-.042 3.912-1.349 7.526-3.68 10.176z"/><path d="m293.229 460.419c.086.001.169.001.254.001 14.156 0 25.771-12.765 25.942-28.584 0 0 0 0 0-.001.171-15.915-11.301-28.987-25.572-29.141-.085-.001-.17-.001-.255-.001-14.156 0-25.77 12.764-25.941 28.585-.171 15.915 11.301 28.987 25.572 29.141zm.368-42.726h.094c6.002.065 10.817 6.336 10.734 13.98-.082 7.645-5.068 13.839-11.034 13.746-6.002-.065-10.817-6.336-10.734-13.98.082-7.604 4.981-13.746 10.94-13.746z"/><path d="m177.436 95.493c1.978.375 4.052-.071 5.708-1.242.956-.674 23.469-16.801 28.178-41.761 4.71-24.966-10.393-48.147-11.038-49.122-1.12-1.69-2.875-2.856-4.868-3.23-1.994-.376-4.052.073-5.709 1.242-.956.674-23.469 16.8-28.179 41.761-4.71 24.966 10.394 48.147 11.039 49.122 1.121 1.69 2.877 2.855 4.869 3.23zm-1.166-49.571c2.176-11.535 9.858-20.971 15.554-26.6 3.253 7.276 6.947 18.79 4.759 30.387-2.173 11.521-9.84 20.948-15.533 26.58-3.252-7.31-6.952-18.857-4.78-30.367z"/><path d="m411.648 154.962c3.33 1.982 7.709 1.082 9.968-2.158.648-.928 15.814-22.976 10.821-45.951-4.99-22.968-27.94-36.783-28.915-37.36-3.377-1.999-7.722-1.057-9.968 2.158-.648.928-15.814 22.976-10.821 45.95 4.99 22.97 27.941 36.784 28.915 37.361zm-9.559-67.997c5.664 4.729 13.47 12.851 15.69 23.074 2.221 10.215-1.509 20.819-4.697 27.452-5.664-4.728-13.47-12.851-15.69-23.074-2.221-10.216 1.508-20.819 4.697-27.452z"/><path d="m413.307 210.997c-3.493-8.861-6.686-15.746-8.749-19.961-1.746-3.569-5.576-5.628-9.508-5.112-3.938.51-7.107 3.469-7.887 7.365-1.303 6.533-3.115 12.845-5.406 18.813-2.117 5.549-5.276 12.158-9.594 18.583.491-8.381.586-16.885.28-25.416-1.359-39.363-11.033-79.917-27.977-117.275-1.71-3.771-6.151-5.443-9.928-3.733-3.772 1.711-5.443 6.156-3.732 9.928 16.14 35.588 25.354 74.178 26.646 111.607.468 13.081-.058 26.067-1.556 38.557-.145 1.438.143 4.868 2.215 7.672 1.796 2.196 4.446 3.554 7.271 3.726 2.843.175 5.515-.822 7.537-2.762 10.613-10.192 19.452-24.688 24.717-40.743.559 1.355 1.132 2.772 1.714 4.249 10.451 26.557 26.612 79.714 17.432 137.354-.53 3.713-1.522 9.552-2.827 15.324-.925 4.038 1.599 8.06 5.636 8.985 3.127.724 7.507-.964 8.985-5.636 1.228-5.357 2.246-10.867 3.029-16.377 9.72-61.133-7.289-117.175-18.298-145.148z"/><path d="m412.862 398.279c-3.775-1.703-8.217-.025-9.922 3.75-12.757 28.263-32.102 51.122-56.021 67.333 10.177-12.572 17.979-27.721 23.11-45.262.011-.037.021-.074.031-.111 12.808-46.417.101-90.506-8.615-112.657-2.314-5.877-4.439-10.459-5.813-13.264-1.63-3.336-5.193-5.257-8.883-4.781-3.684.477-6.646 3.244-7.373 6.882-.828 3.759-2.077 8.899-4.408 14.359-.04-17.234-2.505-35.071-7.316-52.537-1.1-3.993-5.23-6.34-9.222-5.239-3.994 1.1-6.34 5.229-5.239 9.222 6.297 22.862 8.259 46.329 5.672 67.87.14 1.341-.55 2.666 2.028 6.952 1.636 1.995 4.048 3.226 6.618 3.376 2.536.144 5.057-.785 6.856-2.518 5.75-5.44 10.922-13.116 14.448-21.354 7.897 21.302 17.8 59.716 6.802 99.643-16.904 57.708-60.318 73.781-94.721 76.88-1.039.028-1.994.094-5.414.132-35.312-1.185-89.01-25.632-101.397-90.713-2.204-11.583-2.983-23.694-2.316-35.999.225-4.136-2.946-7.671-7.083-7.895-4.141-.241-7.671 2.947-7.895 7.083-.733 13.514.127 26.843 2.559 39.616 4.609 24.218 14.751 45.31 29.737 62.166-43.506-27.449-69.086-77.59-74.774-129.868-8.446-67.467 13.755-140.233 56.972-189.232 1.692 17.158 9.818 39.648 22.387 53.551 2.481 2.889 6.322 4.134 10.024 3.248 3.716-.888 6.59-3.747 7.506-7.484 4.18-17.85 12.158-38.616 22.546-54.274 12.417-19.16 23.201-24.199 37.099-40.709 16.282-19.99 27.184-48.703 32.46-85.447 11.172 12.327 22.474 27.63 31.642 42.926 2.133 3.552 6.738 4.703 10.29 2.572s4.704-6.738 2.573-10.29c-11.031-18.411-25.026-37.032-40.759-53.142-2.755-2.827-6.79-3.786-10.535-2.506-3.755 1.286-6.363 4.53-6.811 8.482-4.312 38.802-14.57 68.386-30.491 87.933-13.002 15.374-24.591 21.243-38.021 41.97-9.122 13.905-16.86 31.28-21.979 49.139-9.739-13.903-14.196-37.6-13.814-49.61-.048-3.735-2.313-7.057-5.771-8.463-3.458-1.405-7.4-.607-10.027 2.02-25.817 25.665-46.033 59.101-58.463 96.691-12.359 37.376-16.409 76.965-11.713 114.472 8.809 78.885 55.24 138.633 123.958 160.765 16.8 5.316 34.017 8.008 51.212 8.008.796-.154.323.311 6.954-.157 33.343-1.286 64.971-11.208 91.774-28.873 27.524-18.142 49.409-43.984 63.288-74.734 1.704-3.776.026-8.218-3.75-9.922z"/></g></svg>